<mxfile host="app.diagrams.net" agent="Mozilla/5.0 (Macintosh; Intel Mac OS X 10_15_7) AppleWebKit/537.36 (KHTML, like Gecko) Chrome/131.0.0.0 Safari/537.36" version="25.0.3">
  <diagram name="Page-1" id="HAGypm2r5l2I8XSqSqDT">
    <mxGraphModel dx="1434" dy="795" grid="1" gridSize="10" guides="1" tooltips="1" connect="1" arrows="1" fold="1" page="1" pageScale="1" pageWidth="850" pageHeight="1100" math="0" shadow="0">
      <root>
        <mxCell id="0" />
        <mxCell id="1" parent="0" />
        <mxCell id="keby2HuT6lO37wSdmU5G-3" value="" style="edgeStyle=orthogonalEdgeStyle;rounded=0;orthogonalLoop=1;jettySize=auto;html=1;" parent="1" source="keby2HuT6lO37wSdmU5G-1" target="keby2HuT6lO37wSdmU5G-2" edge="1">
          <mxGeometry relative="1" as="geometry" />
        </mxCell>
        <mxCell id="keby2HuT6lO37wSdmU5G-1" value="Anadolu Portal sayfasına girilir" style="rounded=1;whiteSpace=wrap;html=1;fillColor=#dae8fc;strokeColor=#6c8ebf;" parent="1" vertex="1">
          <mxGeometry x="100" y="30" width="180" height="50" as="geometry" />
        </mxCell>
        <mxCell id="keby2HuT6lO37wSdmU5G-9" value="" style="edgeStyle=orthogonalEdgeStyle;rounded=0;orthogonalLoop=1;jettySize=auto;html=1;" parent="1" source="keby2HuT6lO37wSdmU5G-2" target="keby2HuT6lO37wSdmU5G-8" edge="1">
          <mxGeometry relative="1" as="geometry" />
        </mxCell>
        <mxCell id="keby2HuT6lO37wSdmU5G-2" value="Anadolu Portal kayıt olunur yada ilgili kurum yada kişisel hesabı ile giriş yapılır" style="rounded=1;whiteSpace=wrap;html=1;fillColor=#dae8fc;strokeColor=#6c8ebf;" parent="1" vertex="1">
          <mxGeometry x="100" y="120" width="180" height="50" as="geometry" />
        </mxCell>
        <mxCell id="keby2HuT6lO37wSdmU5G-15" value="" style="edgeStyle=orthogonalEdgeStyle;rounded=0;orthogonalLoop=1;jettySize=auto;html=1;" parent="1" source="keby2HuT6lO37wSdmU5G-4" target="keby2HuT6lO37wSdmU5G-14" edge="1">
          <mxGeometry relative="1" as="geometry" />
        </mxCell>
        <mxCell id="keby2HuT6lO37wSdmU5G-4" value="Uygulamalar Listesinden istenilen uygulama seçilir" style="rounded=1;whiteSpace=wrap;html=1;fillColor=#dae8fc;strokeColor=#6c8ebf;" parent="1" vertex="1">
          <mxGeometry x="307.5" y="230" width="180" height="50" as="geometry" />
        </mxCell>
        <mxCell id="keby2HuT6lO37wSdmU5G-6" value="Lisanslama sayfasından uygun lisans seçilir" style="rounded=1;whiteSpace=wrap;html=1;fillColor=#dae8fc;strokeColor=#6c8ebf;" parent="1" vertex="1">
          <mxGeometry x="490" y="120" width="180" height="50" as="geometry" />
        </mxCell>
        <mxCell id="keby2HuT6lO37wSdmU5G-10" value="" style="edgeStyle=orthogonalEdgeStyle;rounded=0;orthogonalLoop=1;jettySize=auto;html=1;" parent="1" source="keby2HuT6lO37wSdmU5G-8" target="keby2HuT6lO37wSdmU5G-6" edge="1">
          <mxGeometry relative="1" as="geometry" />
        </mxCell>
        <mxCell id="keby2HuT6lO37wSdmU5G-11" value="" style="edgeStyle=orthogonalEdgeStyle;rounded=0;orthogonalLoop=1;jettySize=auto;html=1;" parent="1" source="keby2HuT6lO37wSdmU5G-8" target="keby2HuT6lO37wSdmU5G-6" edge="1">
          <mxGeometry relative="1" as="geometry" />
        </mxCell>
        <mxCell id="keby2HuT6lO37wSdmU5G-13" value="E" style="edgeLabel;html=1;align=center;verticalAlign=middle;resizable=0;points=[];" parent="keby2HuT6lO37wSdmU5G-11" vertex="1" connectable="0">
          <mxGeometry x="-0.1111" y="1" relative="1" as="geometry">
            <mxPoint as="offset" />
          </mxGeometry>
        </mxCell>
        <mxCell id="keby2HuT6lO37wSdmU5G-12" value="H" style="edgeStyle=orthogonalEdgeStyle;rounded=0;orthogonalLoop=1;jettySize=auto;html=1;" parent="1" source="keby2HuT6lO37wSdmU5G-8" target="keby2HuT6lO37wSdmU5G-4" edge="1">
          <mxGeometry relative="1" as="geometry">
            <mxPoint x="397.5" y="240" as="targetPoint" />
            <Array as="points">
              <mxPoint x="398" y="240" />
            </Array>
          </mxGeometry>
        </mxCell>
        <mxCell id="keby2HuT6lO37wSdmU5G-8" value="Üyelik sistemi var mı?" style="rhombus;whiteSpace=wrap;html=1;fillColor=#fff2cc;strokeColor=#d6b656;" parent="1" vertex="1">
          <mxGeometry x="350" y="102.5" width="95" height="85" as="geometry" />
        </mxCell>
        <mxCell id="keby2HuT6lO37wSdmU5G-17" value="E" style="edgeStyle=orthogonalEdgeStyle;rounded=0;orthogonalLoop=1;jettySize=auto;html=1;" parent="1" source="keby2HuT6lO37wSdmU5G-14" target="keby2HuT6lO37wSdmU5G-16" edge="1">
          <mxGeometry relative="1" as="geometry" />
        </mxCell>
        <mxCell id="keby2HuT6lO37wSdmU5G-20" value="H" style="edgeStyle=orthogonalEdgeStyle;rounded=0;orthogonalLoop=1;jettySize=auto;html=1;" parent="1" source="keby2HuT6lO37wSdmU5G-14" target="keby2HuT6lO37wSdmU5G-18" edge="1">
          <mxGeometry relative="1" as="geometry" />
        </mxCell>
        <mxCell id="keby2HuT6lO37wSdmU5G-14" value="Uygulama Ücretli mi?" style="rhombus;whiteSpace=wrap;html=1;fillColor=#fff2cc;strokeColor=#d6b656;" parent="1" vertex="1">
          <mxGeometry x="350" y="320" width="95" height="85" as="geometry" />
        </mxCell>
        <mxCell id="keby2HuT6lO37wSdmU5G-16" value="" style="rounded=1;whiteSpace=wrap;html=1;fillColor=#f8cecc;strokeColor=#b85450;" parent="1" vertex="1">
          <mxGeometry x="490" y="337.5" width="180" height="50" as="geometry" />
        </mxCell>
        <mxCell id="keby2HuT6lO37wSdmU5G-22" value="" style="edgeStyle=orthogonalEdgeStyle;rounded=0;orthogonalLoop=1;jettySize=auto;html=1;" parent="1" source="keby2HuT6lO37wSdmU5G-18" target="keby2HuT6lO37wSdmU5G-21" edge="1">
          <mxGeometry relative="1" as="geometry" />
        </mxCell>
        <mxCell id="keby2HuT6lO37wSdmU5G-18" value="Yeni uygulama oluştur seçilir" style="rounded=1;whiteSpace=wrap;html=1;fillColor=#dae8fc;strokeColor=#6c8ebf;" parent="1" vertex="1">
          <mxGeometry x="120" y="337.5" width="180" height="50" as="geometry" />
        </mxCell>
        <mxCell id="keby2HuT6lO37wSdmU5G-24" value="" style="edgeStyle=orthogonalEdgeStyle;rounded=0;orthogonalLoop=1;jettySize=auto;html=1;" parent="1" source="keby2HuT6lO37wSdmU5G-21" target="keby2HuT6lO37wSdmU5G-23" edge="1">
          <mxGeometry relative="1" as="geometry" />
        </mxCell>
        <mxCell id="keby2HuT6lO37wSdmU5G-21" value="Uygulamya göre kaynak oluşturma wizard sayfası açılır." style="whiteSpace=wrap;html=1;fillColor=#dae8fc;strokeColor=#6c8ebf;rounded=1;" parent="1" vertex="1">
          <mxGeometry x="150" y="462.5" width="120" height="60" as="geometry" />
        </mxCell>
        <mxCell id="keby2HuT6lO37wSdmU5G-26" value="H" style="edgeStyle=orthogonalEdgeStyle;rounded=0;orthogonalLoop=1;jettySize=auto;html=1;" parent="1" source="keby2HuT6lO37wSdmU5G-27" target="keby2HuT6lO37wSdmU5G-25" edge="1">
          <mxGeometry relative="1" as="geometry" />
        </mxCell>
        <mxCell id="keby2HuT6lO37wSdmU5G-23" value="Uygulamanın gerekli olan kaynakları seçilir" style="whiteSpace=wrap;html=1;fillColor=#dae8fc;strokeColor=#6c8ebf;rounded=1;" parent="1" vertex="1">
          <mxGeometry x="150" y="602.5" width="120" height="60" as="geometry" />
        </mxCell>
        <mxCell id="keby2HuT6lO37wSdmU5G-25" value="Uygulama kaynakları olşturulma işlemi başlar" style="whiteSpace=wrap;html=1;fillColor=#dae8fc;strokeColor=#6c8ebf;rounded=1;" parent="1" vertex="1">
          <mxGeometry x="350" y="830" width="120" height="60" as="geometry" />
        </mxCell>
        <mxCell id="keby2HuT6lO37wSdmU5G-28" value="" style="edgeStyle=orthogonalEdgeStyle;rounded=0;orthogonalLoop=1;jettySize=auto;html=1;entryX=0;entryY=0.5;entryDx=0;entryDy=0;" parent="1" source="keby2HuT6lO37wSdmU5G-23" target="keby2HuT6lO37wSdmU5G-32" edge="1">
          <mxGeometry relative="1" as="geometry">
            <mxPoint x="270" y="633" as="sourcePoint" />
            <mxPoint x="480" y="620" as="targetPoint" />
          </mxGeometry>
        </mxCell>
        <mxCell id="keby2HuT6lO37wSdmU5G-30" value="E" style="edgeStyle=orthogonalEdgeStyle;rounded=0;orthogonalLoop=1;jettySize=auto;html=1;" parent="1" source="keby2HuT6lO37wSdmU5G-27" target="keby2HuT6lO37wSdmU5G-29" edge="1">
          <mxGeometry relative="1" as="geometry" />
        </mxCell>
        <mxCell id="keby2HuT6lO37wSdmU5G-27" value="Kaynaklar Ücretli mi?" style="rhombus;whiteSpace=wrap;html=1;fillColor=#fff2cc;strokeColor=#d6b656;" parent="1" vertex="1">
          <mxGeometry x="362.5" y="700" width="95" height="85" as="geometry" />
        </mxCell>
        <mxCell id="keby2HuT6lO37wSdmU5G-29" value="" style="whiteSpace=wrap;html=1;fillColor=#f8cecc;strokeColor=#b85450;" parent="1" vertex="1">
          <mxGeometry x="520" y="712.5" width="120" height="60" as="geometry" />
        </mxCell>
        <mxCell id="keby2HuT6lO37wSdmU5G-33" value="" style="edgeStyle=orthogonalEdgeStyle;rounded=0;orthogonalLoop=1;jettySize=auto;html=1;" parent="1" source="keby2HuT6lO37wSdmU5G-32" target="keby2HuT6lO37wSdmU5G-27" edge="1">
          <mxGeometry relative="1" as="geometry" />
        </mxCell>
        <mxCell id="keby2HuT6lO37wSdmU5G-32" value="Kaynakların nerede oluşturulacağı seçilir" style="whiteSpace=wrap;html=1;fillColor=#dae8fc;strokeColor=#6c8ebf;rounded=1;" parent="1" vertex="1">
          <mxGeometry x="350" y="602.5" width="120" height="60" as="geometry" />
        </mxCell>
      </root>
    </mxGraphModel>
  </diagram>
</mxfile>
